<mxfile host="Electron" agent="Mozilla/5.0 (X11; Linux x86_64) AppleWebKit/537.36 (KHTML, like Gecko) draw.io/26.0.4 Chrome/128.0.6613.186 Electron/32.2.5 Safari/537.36" version="26.0.4">
  <diagram name="Page-1" id="GpetSxV7e97DByRJV0Gk">
    <mxGraphModel dx="1114" dy="1198" grid="1" gridSize="10" guides="1" tooltips="1" connect="1" arrows="1" fold="1" page="1" pageScale="1" pageWidth="850" pageHeight="1100" math="0" shadow="0">
      <root>
        <mxCell id="0" />
        <mxCell id="1" parent="0" />
        <mxCell id="fjHjS-XuqJrIppnqiC3i-6" value="Corporate data center" style="points=[[0,0],[0.25,0],[0.5,0],[0.75,0],[1,0],[1,0.25],[1,0.5],[1,0.75],[1,1],[0.75,1],[0.5,1],[0.25,1],[0,1],[0,0.75],[0,0.5],[0,0.25]];outlineConnect=0;gradientColor=none;html=1;whiteSpace=wrap;fontSize=12;fontStyle=0;container=1;pointerEvents=0;collapsible=0;recursiveResize=0;shape=mxgraph.aws4.group;grIcon=mxgraph.aws4.group_corporate_data_center;strokeColor=#7D8998;fillColor=none;verticalAlign=top;align=left;spacingLeft=30;fontColor=#5A6C86;dashed=0;" vertex="1" parent="1">
          <mxGeometry x="40" y="308" width="246.5" height="422" as="geometry" />
        </mxCell>
        <mxCell id="fjHjS-XuqJrIppnqiC3i-9" value="DNS&lt;div&gt;Resolver&lt;/div&gt;" style="sketch=0;outlineConnect=0;fontColor=#232F3E;gradientColor=none;fillColor=#232F3D;strokeColor=none;dashed=0;verticalLabelPosition=top;verticalAlign=bottom;align=center;html=1;fontSize=12;fontStyle=0;aspect=fixed;pointerEvents=1;shape=mxgraph.aws4.traditional_server;labelPosition=center;" vertex="1" parent="fjHjS-XuqJrIppnqiC3i-6">
          <mxGeometry x="100" y="121" width="45" height="78" as="geometry" />
        </mxCell>
        <mxCell id="fjHjS-XuqJrIppnqiC3i-10" value="DNS&lt;div&gt;Server&lt;/div&gt;" style="sketch=0;outlineConnect=0;fontColor=#232F3E;gradientColor=none;fillColor=#232F3D;strokeColor=none;dashed=0;verticalLabelPosition=top;verticalAlign=bottom;align=center;html=1;fontSize=12;fontStyle=0;aspect=fixed;pointerEvents=1;shape=mxgraph.aws4.traditional_server;labelPosition=center;" vertex="1" parent="fjHjS-XuqJrIppnqiC3i-6">
          <mxGeometry x="20" y="121" width="45" height="78" as="geometry" />
        </mxCell>
        <mxCell id="fjHjS-XuqJrIppnqiC3i-45" style="edgeStyle=orthogonalEdgeStyle;rounded=0;orthogonalLoop=1;jettySize=auto;html=1;strokeWidth=3;" edge="1" parent="fjHjS-XuqJrIppnqiC3i-6" source="fjHjS-XuqJrIppnqiC3i-11" target="fjHjS-XuqJrIppnqiC3i-38">
          <mxGeometry relative="1" as="geometry" />
        </mxCell>
        <mxCell id="fjHjS-XuqJrIppnqiC3i-11" value="Client Computer" style="sketch=0;outlineConnect=0;fontColor=#232F3E;gradientColor=none;fillColor=#232F3D;strokeColor=none;dashed=0;verticalLabelPosition=bottom;verticalAlign=top;align=center;html=1;fontSize=12;fontStyle=0;aspect=fixed;pointerEvents=1;shape=mxgraph.aws4.client;" vertex="1" parent="fjHjS-XuqJrIppnqiC3i-6">
          <mxGeometry x="84.25" y="312" width="78" height="76" as="geometry" />
        </mxCell>
        <mxCell id="fjHjS-XuqJrIppnqiC3i-44" style="edgeStyle=orthogonalEdgeStyle;rounded=0;orthogonalLoop=1;jettySize=auto;html=1;strokeWidth=3;" edge="1" parent="fjHjS-XuqJrIppnqiC3i-6" source="fjHjS-XuqJrIppnqiC3i-38" target="fjHjS-XuqJrIppnqiC3i-9">
          <mxGeometry relative="1" as="geometry" />
        </mxCell>
        <mxCell id="fjHjS-XuqJrIppnqiC3i-38" value="dev.example.com" style="text;html=1;align=center;verticalAlign=middle;resizable=0;points=[];autosize=1;strokeColor=none;fillColor=none;fontSize=17;fontStyle=1" vertex="1" parent="fjHjS-XuqJrIppnqiC3i-6">
          <mxGeometry x="43.25" y="242" width="160" height="30" as="geometry" />
        </mxCell>
        <mxCell id="fjHjS-XuqJrIppnqiC3i-26" value="1" style="text;html=1;align=center;verticalAlign=middle;resizable=0;points=[];autosize=1;strokeColor=#d79b00;fillColor=#ffe6cc;" vertex="1" parent="fjHjS-XuqJrIppnqiC3i-6">
          <mxGeometry x="70.75" y="272" width="30" height="30" as="geometry" />
        </mxCell>
        <mxCell id="fjHjS-XuqJrIppnqiC3i-2" value="2" style="text;html=1;align=center;verticalAlign=middle;resizable=0;points=[];autosize=1;strokeColor=#d79b00;fillColor=#ffe6cc;" vertex="1" parent="fjHjS-XuqJrIppnqiC3i-6">
          <mxGeometry x="160" y="121" width="30" height="30" as="geometry" />
        </mxCell>
        <mxCell id="fjHjS-XuqJrIppnqiC3i-40" style="edgeStyle=orthogonalEdgeStyle;rounded=0;orthogonalLoop=1;jettySize=auto;html=1;strokeWidth=3;" edge="1" parent="1" source="fjHjS-XuqJrIppnqiC3i-13" target="fjHjS-XuqJrIppnqiC3i-29">
          <mxGeometry relative="1" as="geometry" />
        </mxCell>
        <mxCell id="fjHjS-XuqJrIppnqiC3i-13" value="Customer&lt;div&gt;Gateway&lt;/div&gt;" style="sketch=0;outlineConnect=0;fontColor=#232F3E;gradientColor=none;fillColor=#8C4FFF;strokeColor=none;dashed=0;verticalLabelPosition=bottom;verticalAlign=top;align=center;html=1;fontSize=12;fontStyle=0;aspect=fixed;pointerEvents=1;shape=mxgraph.aws4.customer_gateway;" vertex="1" parent="1">
          <mxGeometry x="247" y="429" width="78" height="78" as="geometry" />
        </mxCell>
        <mxCell id="fjHjS-XuqJrIppnqiC3i-14" value="AWS Cloud" style="points=[[0,0],[0.25,0],[0.5,0],[0.75,0],[1,0],[1,0.25],[1,0.5],[1,0.75],[1,1],[0.75,1],[0.5,1],[0.25,1],[0,1],[0,0.75],[0,0.5],[0,0.25]];outlineConnect=0;gradientColor=none;html=1;whiteSpace=wrap;fontSize=12;fontStyle=0;container=1;pointerEvents=0;collapsible=0;recursiveResize=0;shape=mxgraph.aws4.group;grIcon=mxgraph.aws4.group_aws_cloud;strokeColor=#232F3E;fillColor=none;verticalAlign=top;align=left;spacingLeft=30;fontColor=#232F3E;dashed=0;strokeWidth=1;" vertex="1" parent="1">
          <mxGeometry x="460" y="210" width="750" height="550" as="geometry" />
        </mxCell>
        <mxCell id="fjHjS-XuqJrIppnqiC3i-15" value="VPC" style="points=[[0,0],[0.25,0],[0.5,0],[0.75,0],[1,0],[1,0.25],[1,0.5],[1,0.75],[1,1],[0.75,1],[0.5,1],[0.25,1],[0,1],[0,0.75],[0,0.5],[0,0.25]];outlineConnect=0;gradientColor=none;html=1;whiteSpace=wrap;fontSize=12;fontStyle=0;container=1;pointerEvents=0;collapsible=0;recursiveResize=0;shape=mxgraph.aws4.group;grIcon=mxgraph.aws4.group_vpc2;strokeColor=#8C4FFF;fillColor=none;verticalAlign=top;align=left;spacingLeft=30;fontColor=#AAB7B8;dashed=0;" vertex="1" parent="fjHjS-XuqJrIppnqiC3i-14">
          <mxGeometry x="100" y="30" width="400" height="500" as="geometry" />
        </mxCell>
        <mxCell id="fjHjS-XuqJrIppnqiC3i-16" value="Availability Zone" style="fillColor=none;strokeColor=#147EBA;dashed=1;verticalAlign=top;fontStyle=0;fontColor=#147EBA;whiteSpace=wrap;html=1;" vertex="1" parent="fjHjS-XuqJrIppnqiC3i-15">
          <mxGeometry x="30" y="30" width="342" height="450" as="geometry" />
        </mxCell>
        <mxCell id="fjHjS-XuqJrIppnqiC3i-17" value="Private subnet" style="points=[[0,0],[0.25,0],[0.5,0],[0.75,0],[1,0],[1,0.25],[1,0.5],[1,0.75],[1,1],[0.75,1],[0.5,1],[0.25,1],[0,1],[0,0.75],[0,0.5],[0,0.25]];outlineConnect=0;gradientColor=none;html=1;whiteSpace=wrap;fontSize=12;fontStyle=0;container=1;pointerEvents=0;collapsible=0;recursiveResize=0;shape=mxgraph.aws4.group;grIcon=mxgraph.aws4.group_security_group;grStroke=0;strokeColor=#00A4A6;fillColor=#E6F6F7;verticalAlign=top;align=left;spacingLeft=30;fontColor=#147EBA;dashed=0;" vertex="1" parent="fjHjS-XuqJrIppnqiC3i-15">
          <mxGeometry x="56" y="190" width="130" height="273" as="geometry" />
        </mxCell>
        <mxCell id="fjHjS-XuqJrIppnqiC3i-18" value="Inbound Endpoint" style="sketch=0;outlineConnect=0;fontColor=#232F3E;gradientColor=none;fillColor=#8C4FFF;strokeColor=none;dashed=0;verticalLabelPosition=bottom;verticalAlign=top;align=center;html=1;fontSize=12;fontStyle=0;aspect=fixed;pointerEvents=1;shape=mxgraph.aws4.endpoint;" vertex="1" parent="fjHjS-XuqJrIppnqiC3i-17">
          <mxGeometry x="26" y="43" width="78" height="78" as="geometry" />
        </mxCell>
        <mxCell id="fjHjS-XuqJrIppnqiC3i-19" value="Outbound Endpoint" style="sketch=0;outlineConnect=0;fontColor=#232F3E;gradientColor=none;fillColor=#8C4FFF;strokeColor=none;dashed=0;verticalLabelPosition=bottom;verticalAlign=top;align=center;html=1;fontSize=12;fontStyle=0;aspect=fixed;pointerEvents=1;shape=mxgraph.aws4.endpoint;" vertex="1" parent="fjHjS-XuqJrIppnqiC3i-17">
          <mxGeometry x="26" y="163" width="78" height="78" as="geometry" />
        </mxCell>
        <mxCell id="fjHjS-XuqJrIppnqiC3i-20" value="Private subnet" style="points=[[0,0],[0.25,0],[0.5,0],[0.75,0],[1,0],[1,0.25],[1,0.5],[1,0.75],[1,1],[0.75,1],[0.5,1],[0.25,1],[0,1],[0,0.75],[0,0.5],[0,0.25]];outlineConnect=0;gradientColor=none;html=1;whiteSpace=wrap;fontSize=12;fontStyle=0;container=1;pointerEvents=0;collapsible=0;recursiveResize=0;shape=mxgraph.aws4.group;grIcon=mxgraph.aws4.group_security_group;grStroke=0;strokeColor=#00A4A6;fillColor=#E6F6F7;verticalAlign=top;align=left;spacingLeft=30;fontColor=#147EBA;dashed=0;" vertex="1" parent="fjHjS-XuqJrIppnqiC3i-15">
          <mxGeometry x="222" y="190" width="130" height="273" as="geometry" />
        </mxCell>
        <mxCell id="fjHjS-XuqJrIppnqiC3i-21" value="ECS Instance" style="sketch=0;points=[[0,0,0],[0.25,0,0],[0.5,0,0],[0.75,0,0],[1,0,0],[0,1,0],[0.25,1,0],[0.5,1,0],[0.75,1,0],[1,1,0],[0,0.25,0],[0,0.5,0],[0,0.75,0],[1,0.25,0],[1,0.5,0],[1,0.75,0]];outlineConnect=0;fontColor=#232F3E;fillColor=#ED7100;strokeColor=#ffffff;dashed=0;verticalLabelPosition=bottom;verticalAlign=top;align=center;html=1;fontSize=12;fontStyle=0;aspect=fixed;shape=mxgraph.aws4.resourceIcon;resIcon=mxgraph.aws4.ec2;" vertex="1" parent="fjHjS-XuqJrIppnqiC3i-20">
          <mxGeometry x="26" y="97.5" width="78" height="78" as="geometry" />
        </mxCell>
        <mxCell id="fjHjS-XuqJrIppnqiC3i-22" value="VPC + 2" style="sketch=0;outlineConnect=0;fontColor=#232F3E;gradientColor=none;fillColor=#FF8800;strokeColor=none;dashed=0;verticalLabelPosition=top;verticalAlign=bottom;align=center;html=1;fontSize=12;fontStyle=0;aspect=fixed;pointerEvents=1;shape=mxgraph.aws4.endpoint;labelPosition=center;" vertex="1" parent="fjHjS-XuqJrIppnqiC3i-15">
          <mxGeometry x="274" y="70" width="78" height="78" as="geometry" />
        </mxCell>
        <mxCell id="fjHjS-XuqJrIppnqiC3i-28" value="Router 53 Resolver" style="sketch=0;outlineConnect=0;fontColor=#232F3E;gradientColor=none;fillColor=#8C4FFF;strokeColor=none;dashed=0;verticalLabelPosition=middle;verticalAlign=middle;align=left;html=1;fontSize=12;fontStyle=0;aspect=fixed;pointerEvents=1;shape=mxgraph.aws4.route_53_resolver;labelPosition=right;spacingLeft=5;" vertex="1" parent="fjHjS-XuqJrIppnqiC3i-14">
          <mxGeometry x="550" y="440" width="78" height="78" as="geometry" />
        </mxCell>
        <mxCell id="fjHjS-XuqJrIppnqiC3i-41" style="edgeStyle=orthogonalEdgeStyle;rounded=0;orthogonalLoop=1;jettySize=auto;html=1;strokeWidth=3;" edge="1" parent="fjHjS-XuqJrIppnqiC3i-14" source="fjHjS-XuqJrIppnqiC3i-29" target="fjHjS-XuqJrIppnqiC3i-18">
          <mxGeometry relative="1" as="geometry" />
        </mxCell>
        <mxCell id="fjHjS-XuqJrIppnqiC3i-29" value="Virtual Private Gateway (VGW)&lt;div&gt;VPN Gateway&lt;/div&gt;" style="sketch=0;outlineConnect=0;fontColor=#232F3E;gradientColor=none;fillColor=#8C4FFF;strokeColor=none;dashed=0;verticalLabelPosition=bottom;verticalAlign=top;align=center;html=1;fontSize=12;fontStyle=0;aspect=fixed;pointerEvents=1;shape=mxgraph.aws4.vpn_gateway;" vertex="1" parent="fjHjS-XuqJrIppnqiC3i-14">
          <mxGeometry x="-35" y="219" width="78" height="78" as="geometry" />
        </mxCell>
        <mxCell id="fjHjS-XuqJrIppnqiC3i-30" value="Private&lt;div&gt;Hosted&lt;/div&gt;&lt;div&gt;Zone&lt;/div&gt;" style="sketch=0;outlineConnect=0;fontColor=#232F3E;gradientColor=none;fillColor=#8C4FFF;strokeColor=none;dashed=0;verticalLabelPosition=bottom;verticalAlign=top;align=center;html=1;fontSize=12;fontStyle=0;aspect=fixed;pointerEvents=1;shape=mxgraph.aws4.hosted_zone;" vertex="1" parent="fjHjS-XuqJrIppnqiC3i-14">
          <mxGeometry x="10" y="70" width="78" height="77" as="geometry" />
        </mxCell>
        <mxCell id="fjHjS-XuqJrIppnqiC3i-42" style="edgeStyle=orthogonalEdgeStyle;rounded=0;orthogonalLoop=1;jettySize=auto;html=1;strokeWidth=3;" edge="1" parent="fjHjS-XuqJrIppnqiC3i-14" source="fjHjS-XuqJrIppnqiC3i-18" target="fjHjS-XuqJrIppnqiC3i-28">
          <mxGeometry relative="1" as="geometry">
            <Array as="points">
              <mxPoint x="221" y="200" />
              <mxPoint x="589" y="200" />
            </Array>
          </mxGeometry>
        </mxCell>
        <mxCell id="fjHjS-XuqJrIppnqiC3i-3" value="3" style="text;html=1;align=center;verticalAlign=middle;resizable=0;points=[];autosize=1;strokeColor=#d79b00;fillColor=#ffe6cc;" vertex="1" parent="fjHjS-XuqJrIppnqiC3i-14">
          <mxGeometry x="34" y="200" width="30" height="30" as="geometry" />
        </mxCell>
        <mxCell id="fjHjS-XuqJrIppnqiC3i-4" value="4" style="text;html=1;align=center;verticalAlign=middle;resizable=0;points=[];autosize=1;strokeColor=#d79b00;fillColor=#ffe6cc;" vertex="1" parent="fjHjS-XuqJrIppnqiC3i-14">
          <mxGeometry x="550" y="290" width="30" height="30" as="geometry" />
        </mxCell>
        <mxCell id="fjHjS-XuqJrIppnqiC3i-35" value="On-premise -&amp;gt; AWS" style="text;html=1;align=center;verticalAlign=middle;resizable=0;points=[];autosize=1;strokeColor=none;fillColor=none;fontSize=30;fontStyle=1" vertex="1" parent="1">
          <mxGeometry x="425" y="150" width="290" height="50" as="geometry" />
        </mxCell>
        <mxCell id="fjHjS-XuqJrIppnqiC3i-39" style="edgeStyle=orthogonalEdgeStyle;rounded=0;orthogonalLoop=1;jettySize=auto;html=1;strokeWidth=3;" edge="1" parent="1" source="fjHjS-XuqJrIppnqiC3i-9" target="fjHjS-XuqJrIppnqiC3i-13">
          <mxGeometry relative="1" as="geometry" />
        </mxCell>
      </root>
    </mxGraphModel>
  </diagram>
</mxfile>
